<svg xmlns="http://www.w3.org/2000/svg" version="1.1" xmlns:xlink="http://www.w3.org/1999/xlink" xmlns:svgjs="http://svgjs.dev/svgjs" width="2000" height="1999" viewBox="0 0 2000 1999"><g transform="matrix(1,0,0,1,-0.431486880466764,-0.4312711370263287)"><svg viewBox="0 0 343 343" data-background-color="#ffffff" preserveAspectRatio="xMidYMid meet" height="1999" width="2000" xmlns="http://www.w3.org/2000/svg" xmlns:xlink="http://www.w3.org/1999/xlink"><g id="tight-bounds" transform="matrix(1,0,0,1,0.0740000000000407,0.07400000000001228)"><svg viewBox="0 0 342.85155851775386 342.85155851775386" height="342.85155851775386" width="342.85155851775386"><g><svg></svg></g><g><svg viewBox="0 0 342.85155851775386 342.85155851775386" height="342.85155851775386" width="342.85155851775386"><g><path d="M0 171.426c0-94.676 76.75-171.426 171.426-171.426 94.676 0 171.426 76.75 171.426 171.426 0 94.676-76.75 171.426-171.426 171.426-94.676 0-171.426-76.75-171.426-171.426zM171.426 340.647c93.458 0 169.221-75.763 169.221-169.221 0-93.458-75.763-169.221-169.221-169.221-93.458 0-169.221 75.763-169.221 169.221 0 93.458 75.763 169.221 169.221 169.221z" data-fill-palette-color="tertiary" fill="#0054a8" stroke="transparent"></path><ellipse rx="164.56874808852186" ry="164.56874808852186" cx="171.42577925887693" cy="171.42577925887693" fill="#0054a8" stroke="transparent" stroke-width="0" fill-opacity="1" data-fill-palette-color="tertiary"></ellipse></g><g transform="matrix(1,0,0,1,64.84655864529837,114.54771758089885)"><svg viewBox="0 0 213.1584412271571 113.75612335595615" height="113.75612335595615" width="213.1584412271571"><g><svg viewBox="0 0 213.1584412271571 113.75612335595615" height="113.75612335595615" width="213.1584412271571"><g><svg viewBox="0 0 213.1584412271571 113.75612335595615" height="113.75612335595615" width="213.1584412271571"><g transform="matrix(1,0,0,1,0,68.42282368563971)"><svg viewBox="0 0 213.1584412271571 45.333299670316435" height="45.333299670316435" width="213.1584412271571"><g id="textblocktransform"><svg viewBox="0 0 213.1584412271571 45.333299670316435" height="45.333299670316435" width="213.1584412271571" id="textblock"><g><svg viewBox="0 0 213.1584412271571 24.450615654545143" height="24.450615654545143" width="213.1584412271571"><g transform="matrix(1,0,0,1,0,0)"><svg width="213.1584412271571" viewBox="3 -36.05 398.11 45.670370370370364" height="24.450615654545143" data-palette-color="#ffffff"><path d="M17.5 0L13.5 0 21.35-35.25 25.3-35.25 17.5 0ZM17.3 0L13.35 0 5.5-35.25 9.5-35.25 17.3 0ZM7.55 0L3 0 3-35.25 7.55-35.25 7.55 0ZM27.85 0L23.3 0 23.3-35.25 27.85-35.25 27.85 0ZM51.9 0L47.35 0 47.35-17.2 51.9-17.2 51.9 0ZM41.25 0.75L41.25 0.75 41.6-3Q43.4-3 44.67-3.9 45.95-4.8 46.65-6.55 47.35-8.3 47.35-10.7L47.35-10.7 49.6-10.8Q49.6-7.4 48.5-4.8 47.4-2.2 45.52-0.73 43.65 0.75 41.25 0.75ZM41.6-3L41.25 0.75Q39 0.75 37.15-0.3 35.3-1.35 34.2-3.18 33.1-5 33.1-7.25L33.1-7.25 37.4-7.4Q37.4-5.5 38.67-4.25 39.95-3 41.6-3L41.6-3ZM37.4-7.4L33.1-7.25Q33.1-9.6 34.27-11.38 35.45-13.15 37.45-14.2 39.45-15.25 42-15.25L42-15.25 42.25-11.75Q40.15-11.75 38.77-10.53 37.4-9.3 37.4-7.4L37.4-7.4ZM49.7-11.75L42.25-11.75 42-15.25 49.7-15.25 49.7-11.75ZM49.6-10.8L47.35-10.7 47.35-17.15 49.6-17.15 49.6-10.8ZM51.9-17.1L51.9-17.1 47.35-17.1Q47.35-19.3 46.02-20.7 44.7-22.1 42.6-22.1L42.6-22.1 42.6-26Q45.3-26 47.37-24.85 49.45-23.7 50.67-21.68 51.9-19.65 51.9-17.1ZM37.9-17.7L37.9-17.7 33.7-18.55Q34-20.8 35.22-22.45 36.45-24.1 38.37-25.05 40.3-26 42.65-26L42.65-26 42.65-22.1Q40.8-22.1 39.47-21.03 38.15-19.95 37.9-17.7ZM61.59 0L57.05 0 57.05-25.25 61.59-25.25 61.59 0ZM75.65 0L71.09 0 71.09-17.2 75.65-17.2 75.65 0ZM75.65-17.2L71.09-17.2Q71.09-19.3 69.8-20.63 68.5-21.95 66.45-21.95L66.45-21.95 67.59-26Q69.9-26 71.72-24.85 73.55-23.7 74.59-21.7 75.65-19.7 75.65-17.2L75.65-17.2ZM61.59-17.1L59.59-17.1Q59.59-19.65 60.65-21.68 61.7-23.7 63.5-24.85 65.3-26 67.59-26L67.59-26 66.45-21.95Q64.3-21.95 62.95-20.6 61.59-19.25 61.59-17.1L61.59-17.1ZM61.59 0L57.05 0 57.05-36 61.59-36 61.59 0ZM85.34 0L80.79 0 80.79-25.25 85.34-25.25 85.34 0ZM98.39 0L93.84 0 93.84-17.2 98.39-17.2 98.39 0ZM85.34-17.1L83.29-17.1Q83.29-19.65 84.27-21.68 85.24-23.7 86.94-24.85 88.64-26 90.74-26L90.74-26 89.59-21.95Q87.79-21.95 86.57-20.6 85.34-19.25 85.34-17.1L85.34-17.1ZM98.39-17.2L93.84-17.2Q93.84-19.3 92.64-20.63 91.44-21.95 89.59-21.95L89.59-21.95 90.74-26Q92.94-26 94.67-24.85 96.39-23.7 97.39-21.73 98.39-19.75 98.39-17.2L98.39-17.2ZM111.39 0L106.84 0 106.84-17.2 111.39-17.2 111.39 0ZM98.39-17.1L96.34-17.1Q96.34-19.65 97.32-21.68 98.29-23.7 99.97-24.85 101.64-26 103.74-26L103.74-26 102.59-21.95Q100.79-21.95 99.59-20.6 98.39-19.25 98.39-17.1L98.39-17.1ZM111.39-17.2L106.84-17.2Q106.84-19.3 105.67-20.63 104.49-21.95 102.59-21.95L102.59-21.95 103.74-26Q105.94-26 107.67-24.85 109.39-23.7 110.39-21.73 111.39-19.75 111.39-17.2L111.39-17.2ZM133.89-8.95L129.34-8.95 129.34-16.3 133.89-16.3 133.89-8.95ZM119.84-8.95L115.29-8.95 115.29-16.3 119.84-16.3 119.84-8.95ZM124.74-22.05L124.44-22.05 124.44-26 124.74-26 124.74-22.05ZM124.74 0.75L124.44 0.75 124.44-3.2 124.74-3.2 124.74 0.75ZM119.84-16.25L115.29-16.25Q115.29-19.05 116.52-21.25 117.74-23.45 119.82-24.73 121.89-26 124.54-26L124.54-26 124.54-22.05Q122.34-22.05 121.09-20.55 119.84-19.05 119.84-16.25L119.84-16.25ZM133.89-16.25L133.89-16.25 129.34-16.25Q129.34-19.05 128.12-20.55 126.89-22.05 124.64-22.05L124.64-22.05 124.64-26Q127.29-26 129.37-24.73 131.44-23.45 132.67-21.25 133.89-19.05 133.89-16.25ZM115.29-9L115.29-9 119.84-9Q119.84-6.25 121.09-4.73 122.34-3.2 124.54-3.2L124.54-3.2 124.54 0.75Q121.89 0.75 119.82-0.53 117.74-1.8 116.52-4 115.29-6.2 115.29-9ZM129.34-9L133.89-9Q133.89-6.2 132.67-4 131.44-1.8 129.37-0.53 127.29 0.75 124.64 0.75L124.64 0.75 124.64-3.2Q126.89-3.2 128.12-4.73 129.34-6.25 129.34-9L129.34-9ZM151.84-25.25L156.39-25.25 156.39 0 151.84 0 151.84-25.25ZM137.79-25.25L142.34-25.25 142.34-8.05 137.79-8.05 137.79-25.25ZM137.79-8.05L142.34-8.05Q142.34-5.95 143.66-4.63 144.99-3.3 147.04-3.3L147.04-3.3 145.89 0.75Q143.54 0.75 141.71-0.4 139.89-1.55 138.84-3.55 137.79-5.55 137.79-8.05L137.79-8.05ZM151.84-8.2L153.84-8.2Q153.84-5.65 152.81-3.63 151.79-1.6 149.96-0.43 148.14 0.75 145.89 0.75L145.89 0.75 147.04-3.3Q149.14-3.3 150.49-4.65 151.84-6 151.84-8.2L151.84-8.2ZM180.14-35.25L180.14-25.2 175.59-25.2 175.59-35.25 180.14-35.25ZM180.14 0L175.59 0 175.59-25.25 180.14-25.25 180.14 0ZM166.09-8.05L161.54-8.05 161.54-17.2 166.09-17.2 166.09-8.05ZM166.09-17.2L166.09-17.2 161.54-17.2Q161.54-19.7 162.59-21.7 163.64-23.7 165.46-24.85 167.29-26 169.64-26L169.64-26 170.79-21.95Q168.74-21.95 167.41-20.63 166.09-19.3 166.09-17.2ZM177.59-17.1L177.59-17.1 175.59-17.1Q175.59-19.25 174.24-20.6 172.89-21.95 170.79-21.95L170.79-21.95 169.64-26Q171.89-26 173.71-24.85 175.54-23.7 176.56-21.68 177.59-19.65 177.59-17.1ZM161.54-8.05L166.09-8.05Q166.09-5.95 167.41-4.63 168.74-3.3 170.79-3.3L170.79-3.3 169.64 0.75Q167.29 0.75 165.46-0.4 163.64-1.55 162.59-3.55 161.54-5.55 161.54-8.05L161.54-8.05ZM175.59-8.2L177.59-8.2Q177.59-5.65 176.56-3.63 175.54-1.6 173.71-0.43 171.89 0.75 169.64 0.75L169.64 0.75 170.79-3.3Q172.89-3.3 174.24-4.65 175.59-6 175.59-8.2L175.59-8.2ZM211.93 0L198.08 0 198.08-3.95 211.93-3.95 211.93 0ZM208.93-15.55L198.83-15.55 198.83-19.6 208.93-19.6 208.93-15.55ZM195.53 0L195.53-35.25 200.08-35.25 200.08 0 195.53 0ZM198.58-31.3L198.58-35.25 211.43-35.25 211.43-31.3 198.58-31.3ZM232.83 0L219.98 0 219.98-3.95 232.83-3.95 232.83 0ZM221.48 0L216.93 0 216.93-35.25 221.48-35.25 221.48 0ZM250.48-14.2L236.33-14.2 236.33-18.25 250.48-18.25 250.48-14.2ZM275.17-14.8L264.97-14.8 264.97-18.75 275.17-18.75 275.17-14.8ZM275.17-8.55L270.62-8.55 270.62-18.6 275.17-18.6 275.17-8.55ZM260.02-8.55L255.47-8.55 255.47-26.7 260.02-26.7 260.02-8.55ZM260.02-26.7L255.47-26.7Q255.47-29.45 256.72-31.58 257.97-33.7 260.22-34.88 262.47-36.05 265.37-36.05L265.37-36.05 265.37-32.1Q262.87-32.1 261.45-30.7 260.02-29.3 260.02-26.7L260.02-26.7ZM255.47-8.6L255.47-8.6 260.02-8.6Q260.02-6 261.45-4.58 262.87-3.15 265.37-3.15L265.37-3.15 265.37 0.8Q262.47 0.8 260.22-0.4 257.97-1.6 256.72-3.7 255.47-5.8 255.47-8.6ZM275.47-26.25L271.32-25.4Q271.02-28.55 269.45-30.33 267.87-32.1 265.32-32.1L265.32-32.1 265.32-36.05Q269.57-36.05 272.25-33.45 274.92-30.85 275.47-26.25L275.47-26.25ZM270.62-8.6L275.17-8.6Q275.17-5.8 273.92-3.7 272.67-1.6 270.45-0.4 268.22 0.8 265.32 0.8L265.32 0.8 265.32-3.15Q267.82-3.15 269.22-4.58 270.62-6 270.62-8.6L270.62-8.6ZM281.42 9.25L281.42 9.25 282.37 5.5Q284.32 6 285.62 5.25 286.92 4.5 287.67 2.15L287.67 2.15 291.87 2.15Q290.37 6.85 287.75 8.55 285.12 10.25 281.42 9.25ZM291.87 2.15L287.67 2.15 296.22-25.25 300.77-25.25 291.87 2.15ZM290.77-4.5L288.52 1.85 279.72-25.25 284.27-25.25 290.77-4.5ZM318.07-25.25L322.62-25.25 322.62 0 318.07 0 318.07-25.25ZM304.02-25.25L308.57-25.25 308.57-8.05 304.02-8.05 304.02-25.25ZM304.02-8.05L308.57-8.05Q308.57-5.95 309.89-4.63 311.22-3.3 313.27-3.3L313.27-3.3 312.12 0.75Q309.77 0.75 307.94-0.4 306.12-1.55 305.07-3.55 304.02-5.55 304.02-8.05L304.02-8.05ZM318.07-8.2L320.07-8.2Q320.07-5.65 319.04-3.63 318.02-1.6 316.19-0.43 314.37 0.75 312.12 0.75L312.12 0.75 313.27-3.3Q315.37-3.3 316.72-4.65 318.07-6 318.07-8.2L318.07-8.2ZM345.87-8.95L341.32-8.95 341.32-16.3 345.87-16.3 345.87-8.95ZM331.82-8.95L327.27-8.95 327.27-16.3 331.82-16.3 331.82-8.95ZM336.72-22.05L336.42-22.05 336.42-26 336.72-26 336.72-22.05ZM336.72 0.75L336.42 0.75 336.42-3.2 336.72-3.2 336.72 0.75ZM331.82-16.25L327.27-16.25Q327.27-19.05 328.49-21.25 329.72-23.45 331.79-24.73 333.87-26 336.52-26L336.52-26 336.52-22.05Q334.32-22.05 333.07-20.55 331.82-19.05 331.82-16.25L331.82-16.25ZM345.87-16.25L345.87-16.25 341.32-16.25Q341.32-19.05 340.09-20.55 338.87-22.05 336.62-22.05L336.62-22.05 336.62-26Q339.27-26 341.34-24.73 343.42-23.45 344.64-21.25 345.87-19.05 345.87-16.25ZM327.27-9L327.27-9 331.82-9Q331.82-6.25 333.07-4.73 334.32-3.2 336.52-3.2L336.52-3.2 336.52 0.75Q333.87 0.75 331.79-0.53 329.72-1.8 328.49-4 327.27-6.2 327.27-9ZM341.32-9L345.87-9Q345.87-6.2 344.64-4 343.42-1.8 341.34-0.53 339.27 0.75 336.62 0.75L336.62 0.75 336.62-3.2Q338.87-3.2 340.09-4.73 341.32-6.25 341.32-9L341.32-9ZM362.46-6.5L362.46-6.5Q362.46-7.75 361.56-8.58 360.66-9.4 359.24-10.08 357.81-10.75 356.24-11.45 354.66-12.15 353.24-13.08 351.81-14 350.91-15.43 350.01-16.85 350.01-18.9L350.01-18.9Q350.01-18.9 350.44-18.9 350.86-18.9 351.54-18.9 352.21-18.9 352.86-18.9 353.51-18.9 353.96-18.9 354.41-18.9 354.41-18.9L354.41-18.9Q354.41-17.65 355.31-16.82 356.21-16 357.64-15.35 359.06-14.7 360.66-13.98 362.26-13.25 363.66-12.3 365.06-11.35 365.99-9.98 366.91-8.6 366.91-6.5L366.91-6.5Q366.91-6.5 366.46-6.5 366.01-6.5 365.34-6.5 364.66-6.5 364.01-6.5 363.36-6.5 362.91-6.5 362.46-6.5 362.46-6.5ZM358.21 0.75L358.21 0.75 358.21-3.2Q360.06-3.2 361.26-4.13 362.46-5.05 362.46-6.5L362.46-6.5 366.91-6.5Q366.91-4.4 365.79-2.75 364.66-1.1 362.71-0.18 360.76 0.75 358.21 0.75ZM354.41-18.9L350.01-18.9Q350.01-20.95 351.04-22.58 352.06-24.2 353.91-25.13 355.76-26.05 358.01-26.05L358.01-26.05 358.01-22.1Q356.46-22.1 355.44-21.2 354.41-20.3 354.41-18.9L354.41-18.9ZM349.26-6.7L353.46-7.55Q353.71-5.35 355.06-4.28 356.41-3.2 358.21-3.2L358.21-3.2 358.21 0.75Q355.91 0.75 353.96-0.2 352.01-1.15 350.79-2.85 349.56-4.55 349.26-6.7L349.26-6.7ZM366.96-18.6L362.71-17.75Q362.46-20 361.14-21.05 359.81-22.1 358.01-22.1L358.01-22.1 358.01-26.05Q360.36-26.05 362.26-25.1 364.16-24.15 365.41-22.48 366.66-20.8 366.96-18.6L366.96-18.6ZM376.16 0L371.61 0 371.61-25.25 376.16-25.25 376.16 0ZM390.21 0L385.66 0 385.66-17.2 390.21-17.2 390.21 0ZM390.21-17.2L385.66-17.2Q385.66-19.3 384.36-20.63 383.06-21.95 381.01-21.95L381.01-21.95 382.16-26Q384.46-26 386.29-24.85 388.11-23.7 389.16-21.7 390.21-19.7 390.21-17.2L390.21-17.2ZM376.16-17.1L374.16-17.1Q374.16-19.65 375.21-21.68 376.26-23.7 378.06-24.85 379.86-26 382.16-26L382.16-26 381.01-21.95Q378.86-21.95 377.51-20.6 376.16-19.25 376.16-17.1L376.16-17.1ZM376.16 0L371.61 0 371.61-36 376.16-36 376.16 0ZM400.41 0L395.86 0 395.86-25.25 400.41-25.25 400.41 0ZM398.11-28.6L398.11-28.6Q396.86-28.6 396.01-29.45 395.16-30.3 395.16-31.55L395.16-31.55Q395.16-32.8 396.01-33.68 396.86-34.55 398.11-34.55L398.11-34.55Q399.36-34.55 400.23-33.68 401.11-32.8 401.11-31.55L401.11-31.55Q401.11-30.3 400.23-29.45 399.36-28.6 398.11-28.6Z" opacity="1" transform="matrix(1,0,0,1,0,0)" fill="#ffffff" class="wordmark-text-0" data-fill-palette-color="quaternary" id="text-0"></path></svg></g></svg></g><g transform="matrix(1,0,0,1,0,30.222819195807542)"><svg viewBox="0 0 213.1584412271571 15.110480474508899" height="15.110480474508899" width="213.1584412271571"><g transform="matrix(1,0,0,1,0,0)"><svg width="213.1584412271571" viewBox="4.05 -38 689.82 48.9" height="15.110480474508899" data-palette-color="#ffffff"><path d="M13 0L4.05 0 4.05-34.85 13.05-34.85Q20.63-34.85 24.74-30.61 28.85-26.38 28.85-17.85L28.85-17.85Q28.85-12.4 27.03-8.39 25.2-4.38 21.66-2.19 18.13 0 13 0L13 0ZM12.85-29.85L12.85-29.85 10.5-29.85 10.5-5.5 12.85-5.5Q15.6-5.5 17.43-6.54 19.25-7.58 20.34-9.31 21.43-11.05 21.89-13.24 22.35-15.43 22.35-17.7L22.35-17.7Q22.35-20.85 21.48-23.63 20.6-26.4 18.53-28.13 16.45-29.85 12.85-29.85ZM55.05 0.65L55.05 0.65Q50.85 0.65 48.27-1.11 45.7-2.88 44.52-5.79 43.35-8.7 43.35-12.15L43.35-12.15Q43.35-15.78 44.69-18.81 46.02-21.85 48.61-23.68 51.2-25.5 54.95-25.5L54.95-25.5Q60.55-25.5 62.77-22.26 65-19.03 65-13.1L65-13.1Q65-12.58 64.97-11.78 64.95-10.98 64.9-10.4L64.9-10.4 49.9-10.4Q50.05-7.45 51.56-5.78 53.07-4.1 56.1-4.1L56.1-4.1Q57.65-4.1 59.42-4.79 61.2-5.48 62.05-6.45L62.05-6.45 64.05-1.7Q63.05-1.03 60.89-0.19 58.72 0.65 55.05 0.65ZM49.85-14.3L49.85-14.3 58.65-14.3Q58.65-16.93 58.19-18.31 57.72-19.7 56.92-20.23 56.12-20.75 55.1-20.75L55.1-20.75Q52.55-20.75 51.27-18.86 50-16.98 49.85-14.3ZM92.35 0L87.9 0 77.8-24.9 84.8-24.9 89.1-12.45 90.2-8.35 91.2-12.45 95.35-24.9 101.95-24.9 92.35 0ZM126.34 0.65L126.34 0.65Q122.14 0.65 119.57-1.11 116.99-2.88 115.82-5.79 114.64-8.7 114.64-12.15L114.64-12.15Q114.64-15.78 115.98-18.81 117.32-21.85 119.91-23.68 122.49-25.5 126.24-25.5L126.24-25.5Q131.84-25.5 134.07-22.26 136.29-19.03 136.29-13.1L136.29-13.1Q136.29-12.58 136.27-11.78 136.24-10.98 136.19-10.4L136.19-10.4 121.19-10.4Q121.34-7.45 122.86-5.78 124.37-4.1 127.39-4.1L127.39-4.1Q128.94-4.1 130.72-4.79 132.49-5.48 133.34-6.45L133.34-6.45 135.34-1.7Q134.34-1.03 132.18-0.19 130.02 0.65 126.34 0.65ZM121.14-14.3L121.14-14.3 129.94-14.3Q129.94-16.93 129.48-18.31 129.02-19.7 128.22-20.23 127.42-20.75 126.39-20.75L126.39-20.75Q123.84-20.75 122.57-18.86 121.29-16.98 121.14-14.3ZM159.29 0L153.19 0 153.19-38 159.29-38 159.29 0ZM186.59 0.5L186.59 0.5Q181.09 0.5 178.09-2.95 175.09-6.4 175.09-12.5L175.09-12.5Q175.09-18.65 178.19-22.08 181.29-25.5 186.79-25.5L186.79-25.5Q192.32-25.5 195.2-21.96 198.09-18.43 198.09-12.5L198.09-12.5Q198.09-6.58 195.1-3.04 192.12 0.5 186.59 0.5ZM186.69-4.5L186.69-4.5Q191.44-4.5 191.44-12.5L191.44-12.5Q191.44-20.55 186.69-20.55L186.69-20.55Q184.34-20.55 183.04-18.69 181.74-16.82 181.74-12.5L181.74-12.5Q181.74-8.2 183.04-6.35 184.34-4.5 186.69-4.5ZM220.94 10.9L214.89 10.9 214.89-24.9 220.84-24.9 220.84-24.1 220.34-20.6Q220.64-22.03 221.7-23.15 222.76-24.28 224.3-24.91 225.84-25.55 227.54-25.55L227.54-25.55Q232.49-25.55 234.76-22.09 237.04-18.63 237.04-12.8L237.04-12.8Q237.04-6.28 234.28-2.79 231.51 0.7 227.04 0.7L227.04 0.7Q224.26 0.7 222.6-1.03 220.94-2.75 220.34-4.95L220.34-4.95 220.94-0.25 220.94 10.9ZM225.59-4.25L225.59-4.25Q226.79-4.25 227.91-5.06 229.04-5.88 229.76-7.7 230.49-9.53 230.49-12.55L230.49-12.55Q230.49-16.75 229.05-18.6 227.61-20.45 225.69-20.45L225.69-20.45Q223.36-20.45 222.15-18.06 220.94-15.68 220.94-12.15L220.94-12.15Q220.94-8.63 222.18-6.44 223.41-4.25 225.59-4.25ZM260.19 0L253.79 0 253.79-24.9 259.54-24.9 259.69-21.6Q260.66-23.1 262.4-24.3 264.14-25.5 267.04-25.5L267.04-25.5Q269.56-25.5 271.24-24.38 272.91-23.25 273.76-21.2L273.76-21.2Q274.71-22.78 276.5-24.14 278.29-25.5 281.49-25.5L281.49-25.5Q285.24-25.5 287.09-23.1 288.94-20.7 288.94-16.45L288.94-16.45 288.94 0 282.59 0 282.59-15.8Q282.59-17.88 281.79-19.16 280.99-20.45 279.19-20.45L279.19-20.45Q277.44-20.45 276.01-19.16 274.59-17.88 274.59-15.8L274.59-15.8 274.59 0 268.19 0 268.19-15.8Q268.19-17.88 267.28-19.21 266.36-20.55 264.59-20.55L264.59-20.55Q262.79-20.55 261.49-19.21 260.19-17.88 260.19-15.8L260.19-15.8 260.19 0ZM317.14 0.65L317.14 0.65Q312.94 0.65 310.36-1.11 307.79-2.88 306.61-5.79 305.44-8.7 305.44-12.15L305.44-12.15Q305.44-15.78 306.77-18.81 308.11-21.85 310.7-23.68 313.29-25.5 317.04-25.5L317.04-25.5Q322.64-25.5 324.86-22.26 327.09-19.03 327.09-13.1L327.09-13.1Q327.09-12.58 327.06-11.78 327.04-10.98 326.99-10.4L326.99-10.4 311.99-10.4Q312.14-7.45 313.65-5.78 315.16-4.1 318.19-4.1L318.19-4.1Q319.74-4.1 321.51-4.79 323.29-5.48 324.14-6.45L324.14-6.45 326.14-1.7Q325.14-1.03 322.97-0.19 320.81 0.65 317.14 0.65ZM311.94-14.3L311.94-14.3 320.74-14.3Q320.74-16.93 320.27-18.31 319.81-19.7 319.01-20.23 318.21-20.75 317.19-20.75L317.19-20.75Q314.64-20.75 313.36-18.86 312.09-16.98 311.94-14.3ZM350.28 0L343.88 0 343.88-24.9 349.68-24.9 349.81-21.63Q350.78-23.13 352.53-24.31 354.28-25.5 357.13-25.5L357.13-25.5Q360.93-25.5 362.78-23.1 364.63-20.7 364.63-16.45L364.63-16.45 364.63 0 358.23 0 358.23-15.9Q358.23-17.98 357.36-19.26 356.48-20.55 354.68-20.55L354.68-20.55Q352.93-20.55 351.61-19.26 350.28-17.98 350.28-15.9L350.28-15.9 350.28 0ZM390.93 0.75L390.93 0.75Q386.71 0.75 385.22-1.45 383.73-3.65 383.73-8.1L383.73-8.1 383.73-19.65 380.48-19.65 380.48-24.9 383.98-24.9 384.33-30.15 389.78-32.5 389.78-24.9 395.93-24.9 395.93-19.65 389.78-19.65 389.78-8.25Q389.78-6.08 390.4-5.24 391.01-4.4 392.08-4.4L392.08-4.4Q393.18-4.4 394.41-4.98 395.63-5.55 396.33-6.15L396.33-6.15 397.53-1.1Q396.76-0.55 395.52-0.14 394.28 0.28 393.02 0.51 391.76 0.75 390.93 0.75ZM440.23 0L433.83 0 433.83-34.85 440.23-34.85 440.23 0ZM465.68 0.45L465.68 0.45Q462.95 0.45 461.22-0.06 459.48-0.58 458.52-1.24 457.55-1.9 457.18-2.35L457.18-2.35 459.03-7.1Q460.13-6.2 461.84-5.33 463.55-4.45 465.83-4.45L465.83-4.45Q467.6-4.45 468.32-5.18 469.03-5.9 469.03-6.75L469.03-6.75Q469.03-7.93 467.4-8.88 465.78-9.83 463.63-10.75L463.63-10.75Q462.35-11.3 460.93-12.15 459.5-13 458.49-14.4 457.48-15.8 457.48-18L457.48-18Q457.48-21.38 459.94-23.39 462.4-25.4 466.93-25.4L466.93-25.4Q469.83-25.4 471.84-24.54 473.85-23.68 474.53-23L474.53-23 472.83-18.5Q471.85-19.25 470.35-19.93 468.85-20.6 467.13-20.6L467.13-20.6Q465.23-20.6 464.48-20.1 463.73-19.6 463.73-18.5L463.73-18.5Q463.73-17.28 465.07-16.49 466.4-15.7 468.28-14.95L468.28-14.95Q471.4-13.73 473.32-11.94 475.23-10.15 475.23-7.4L475.23-7.4Q475.23-5.35 474.28-3.56 473.33-1.78 471.23-0.66 469.13 0.45 465.68 0.45ZM531.57 0L512.37 0 512.37-34.85 530.57-34.85 530.57-29.4 518.62-29.4 518.62-21.25 528.12-21.25 528.12-15.95 518.62-15.95 518.62-5.65 531.57-5.65 531.57 0ZM553.22 0.7L553.22 0.7Q550.92 0.7 549.41-0.33 547.9-1.35 547.16-3.05 546.42-4.75 546.42-6.8L546.42-6.8Q546.42-7.95 547.01-9.33 547.6-10.7 549.1-11.95 550.6-13.2 553.32-14 556.05-14.8 560.32-14.8L560.32-14.8 560.32-15.95Q560.32-17.8 559.44-19.03 558.55-20.25 555.87-20.25L555.87-20.25Q553.92-20.25 552.06-19.59 550.2-18.93 549.32-17.95L549.32-17.95 547.32-22.75Q548.82-23.78 551.34-24.64 553.85-25.5 556.92-25.5L556.92-25.5Q560.62-25.5 562.67-24.38 564.72-23.25 565.55-21.19 566.37-19.13 566.37-16.35L566.37-16.35 566.37 0 561.02 0 560.57-3.55Q557.97 0.7 553.22 0.7ZM555.87-4.1L555.87-4.1Q557-4.1 558.29-5.01 559.57-5.93 560.32-7.35L560.32-7.35 560.32-10.9Q560.07-10.95 559.79-10.95 559.5-10.95 559.12-10.95L559.12-10.95Q557.75-10.95 556.24-10.64 554.72-10.33 553.67-9.55 552.62-8.78 552.62-7.4L552.62-7.4Q552.62-5.6 553.42-4.85 554.22-4.1 555.87-4.1ZM590.77 0.45L590.77 0.45Q588.05 0.45 586.31-0.06 584.57-0.58 583.61-1.24 582.65-1.9 582.27-2.35L582.27-2.35 584.12-7.1Q585.22-6.2 586.93-5.33 588.65-4.45 590.92-4.45L590.92-4.45Q592.7-4.45 593.41-5.18 594.12-5.9 594.12-6.75L594.12-6.75Q594.12-7.93 592.5-8.88 590.87-9.83 588.72-10.75L588.72-10.75Q587.45-11.3 586.02-12.15 584.6-13 583.58-14.4 582.57-15.8 582.57-18L582.57-18Q582.57-21.38 585.03-23.39 587.5-25.4 592.02-25.4L592.02-25.4Q594.92-25.4 596.93-24.54 598.95-23.68 599.62-23L599.62-23 597.92-18.5Q596.95-19.25 595.45-19.93 593.95-20.6 592.22-20.6L592.22-20.6Q590.32-20.6 589.57-20.1 588.82-19.6 588.82-18.5L588.82-18.5Q588.82-17.28 590.16-16.49 591.5-15.7 593.37-14.95L593.37-14.95Q596.5-13.73 598.41-11.94 600.32-10.15 600.32-7.4L600.32-7.4Q600.32-5.35 599.37-3.56 598.42-1.78 596.32-0.66 594.22 0.45 590.77 0.45ZM623.52-28.95L616.52-28.95 616.52-35.6 623.52-35.6 623.52-28.95ZM623.27 0L616.77 0 616.77-24.9 623.27-24.9 623.27 0ZM651.72 0.65L651.72 0.65Q647.52 0.65 644.94-1.11 642.37-2.88 641.19-5.79 640.02-8.7 640.02-12.15L640.02-12.15Q640.02-15.78 641.35-18.81 642.69-21.85 645.28-23.68 647.87-25.5 651.62-25.5L651.62-25.5Q657.22-25.5 659.44-22.26 661.67-19.03 661.67-13.1L661.67-13.1Q661.67-12.58 661.64-11.78 661.62-10.98 661.57-10.4L661.57-10.4 646.57-10.4Q646.72-7.45 648.23-5.78 649.74-4.1 652.77-4.1L652.77-4.1Q654.32-4.1 656.09-4.79 657.87-5.48 658.72-6.45L658.72-6.45 660.72-1.7Q659.72-1.03 657.55-0.19 655.39 0.65 651.72 0.65ZM646.52-14.3L646.52-14.3 655.32-14.3Q655.32-16.93 654.85-18.31 654.39-19.7 653.59-20.23 652.79-20.75 651.77-20.75L651.77-20.75Q649.22-20.75 647.94-18.86 646.67-16.98 646.52-14.3ZM684.47 0L678.22 0 678.22-24.9 683.87-24.9 684.17-20.5Q684.57-21.48 685.4-22.58 686.24-23.68 687.73-24.44 689.22-25.2 691.57-25.2L691.57-25.2Q692.29-25.2 692.84-25.1 693.39-25 693.87-24.8L693.87-24.8 692.47-18.25Q691.67-19.05 690.02-19.05L690.02-19.05Q688.09-19.05 686.87-18.26 685.64-17.48 685.05-16.5 684.47-15.53 684.47-15L684.47-15 684.47 0Z" opacity="1" transform="matrix(1,0,0,1,0,0)" fill="#ffffff" class="slogan-text-1" data-fill-palette-color="quaternary" id="text-1"></path></svg></g></svg></g></svg></g></svg></g><g transform="matrix(1,0,0,1,76.04568085343756,0)"><svg viewBox="0 0 61.06707952028199 62.65062014437732" height="62.65062014437732" width="61.06707952028199"><g><svg xmlns="http://www.w3.org/2000/svg" xmlns:xlink="http://www.w3.org/1999/xlink" version="1.1" x="0" y="0" viewBox="5.6372391752279665 5.999 87.72615835628174 90.001" enable-background="new 0 0 100 100" xml:space="preserve" height="62.65062014437732" width="61.06707952028199" class="icon-icon-0" data-fill-palette-color="quaternary" id="icon-0"><g fill="#ffffff" data-fill-palette-color="quaternary"><path d="M58.203 96H40.796A4.016 4.016 0 0 1 36.785 91.989V84.753C36.785 84.395 36.041 83.843 34.845 83.315L34.651 83.225A32 32 0 0 1 28.088 79.27C27.564 78.863 26.861 78.752 26.455 78.989L20.439 82.462C18.347 83.669 15.946 82.882 14.881 81.038L6.177 65.962A3.98 3.98 0 0 1 5.776 62.919 4 4 0 0 1 7.646 60.482L8.584 61.768 7.787 60.4 8.201 60.162 9.113 61.463 8.32 60.094 13.085 57.344C14.531 56.504 14.531 56.504 14.405 55.605 14.204 54.239 14.115 52.829 14.115 51.102V50.899C14.115 49.173 14.204 47.763 14.396 46.464L14.409 46.37C14.531 45.496 14.531 45.496 13.032 44.627L8.323 41.908 9.019 40.483 8.229 41.854 7.789 41.6 8.488 40.177 7.645 41.517A4.015 4.015 0 0 1 6.178 36.039L14.882 20.963A4.02 4.02 0 0 1 18.358 18.957C19.059 18.957 19.752 19.143 20.361 19.494L26.472 23.022C26.881 23.245 27.572 23.132 28.089 22.73A32.4 32.4 0 0 1 34.701 18.751L34.846 18.685C36.042 18.157 36.786 17.606 36.786 17.247V10.011C36.786 7.799 38.586 5.999 40.797 5.999H58.204C60.416 5.999 62.215 7.799 62.215 10.011V17.247C62.215 17.605 62.96 18.156 64.157 18.685L64.328 18.764A32.3 32.3 0 0 1 70.914 22.73C71.43 23.131 72.119 23.243 72.53 23.022L78.613 19.51C80.635 18.363 83.059 19.127 84.121 20.961L92.824 36.038A4.017 4.017 0 0 1 91.355 41.517L87.345 43.833 86.444 42.525 87.238 43.894 86.015 44.601C84.471 45.496 84.471 45.496 84.597 46.396L84.613 46.512C84.801 47.826 84.885 49.21 84.885 50.899L84.884 51 84.885 51.102C84.885 52.822 84.797 54.225 84.608 55.515L84.607 55.531C84.471 56.506 84.471 56.506 85.969 57.375L87.238 58.107 86.546 59.533 87.34 58.165 90.681 60.094 89.983 61.519 90.773 60.147 91.378 60.498A3.96 3.96 0 0 1 93.224 62.921 3.98 3.98 0 0 1 92.825 65.964L84.12 81.037A4.03 4.03 0 0 1 80.642 83.043 4 4 0 0 1 78.639 82.506L72.555 78.993C72.119 78.741 71.436 78.863 70.913 79.268A32.3 32.3 0 0 1 64.355 83.222L64.128 83.325C62.957 83.843 62.212 84.394 62.212 84.753V91.989A4.013 4.013 0 0 1 58.203 96M36.123 80.419C37.766 81.146 39.95 82.384 39.95 84.753V91.989C39.95 92.455 40.329 92.836 40.796 92.836H58.203A0.85 0.85 0 0 0 59.051 91.989V84.753C59.051 82.384 61.236 81.146 62.878 80.419L63.007 80.359A29 29 0 0 0 68.972 76.77C70.492 75.588 72.619 75.378 74.125 76.245L76.637 77.694 75.958 79.131 76.743 77.758 78.117 78.551 77.472 80.005 78.263 78.635 80.204 79.756A0.9 0.9 0 0 0 80.642 79.879 0.85 0.85 0 0 0 81.378 79.454L90.081 64.38A0.84 0.84 0 0 0 90.165 63.737 0.84 0.84 0 0 0 89.771 63.223L84.428 60.138C82.047 58.758 81.116 57.775 81.45 55.241L81.466 55.119C81.64 53.935 81.719 52.673 81.719 51.101L81.72 51 81.721 50.898C81.721 49.327 81.642 48.064 81.474 46.924L81.456 46.779C81.103 44.238 82.032 43.25 84.382 41.888L85.959 40.977 86.85 42.289 86.058 40.92 89.098 39.165 89.982 40.481 89.193 39.11 89.716 38.807C90.176 38.541 90.316 38.022 90.082 37.617L81.379 22.542A0.86 0.86 0 0 0 80.222 22.232L76.743 24.24 75.903 22.898 76.653 24.292 74.049 25.792C72.432 26.657 70.45 26.377 68.972 25.227A29.2 29.2 0 0 0 63.012 21.641L62.927 21.6C61.231 20.85 59.051 19.612 59.051 17.246V10.01A0.85 0.85 0 0 0 58.203 9.163H40.796A0.847 0.847 0 0 0 39.95 10.01V17.246C39.95 19.615 37.766 20.853 36.123 21.579L35.373 20.182 36.028 21.622A29.3 29.3 0 0 0 30.029 25.227C28.509 26.409 26.381 26.619 24.876 25.753L22.363 24.302 23.042 22.866 22.257 24.24 18.844 22.269C18.647 22.155 18.506 22.117 18.357 22.117A0.85 0.85 0 0 0 17.622 22.541L8.917 37.62A0.85 0.85 0 0 0 9.227 38.777L14.567 41.86C16.975 43.256 17.901 44.246 17.538 46.837L17.524 46.936C17.357 48.069 17.279 49.332 17.279 50.9L17.28 51.025C17.279 52.671 17.357 53.934 17.525 55.077L17.539 55.184C17.901 57.757 16.974 58.746 14.618 60.113L9.285 63.19C9.032 63.336 8.892 63.519 8.833 63.737A0.84 0.84 0 0 0 8.917 64.379L17.622 79.455A0.86 0.86 0 0 0 18.779 79.766L22.258 77.757 23.099 79.098 22.369 77.693 24.947 76.208C25.5 75.888 26.229 75.697 26.986 75.697 28.058 75.697 29.139 76.079 30.03 76.771A29 29 0 0 0 35.961 80.345L36.048 80.386 35.919 80.657 35.485 81.868z" fill="#ffffff" data-fill-palette-color="quaternary"></path></g><g fill="#ffffff" data-fill-palette-color="quaternary"><path d="M49.5 78.996C34.118 78.996 21.604 66.483 21.604 51.101S34.118 23.205 49.5 23.205 77.396 35.719 77.396 51.101 64.882 78.996 49.5 78.996M49.5 26.37C35.863 26.37 24.769 37.465 24.769 51.102S35.863 75.833 49.5 75.833 74.232 64.738 74.232 51.102C74.232 37.464 63.138 26.37 49.5 26.37" fill="#ffffff" data-fill-palette-color="quaternary"></path></g><path fill-rule="evenodd" clip-rule="evenodd" d="M60.46 62.594L58.006 60.14 66.594 51.553 58.006 42.964 60.46 40.51 71.502 51.553zM44.735 61.963L52.272 39.406H55.743L48.206 61.963zM39.529 61.726L28.487 50.685 39.529 39.643 41.983 42.097 33.395 50.685 41.983 59.273z" fill="#ffffff" data-fill-palette-color="quaternary"></path></svg></g></svg></g><g></g></svg></g></svg></g></svg></g></svg></g><defs></defs></svg><rect width="342.85155851775386" height="342.85155851775386" fill="none" stroke="none" visibility="hidden"></rect></g></svg></g></svg>